<?xml version="1.0" encoding="utf-8"?>
<!-- Generator: Adobe Illustrator 23.0.1, SVG Export Plug-In . SVG Version: 6.00 Build 0)  -->
<svg version="1.1" id="Layer_1" xmlns="http://www.w3.org/2000/svg" xmlns:xlink="http://www.w3.org/1999/xlink" x="0px" y="0px"
	 viewBox="0 0 613 82" style="enable-background:new 0 0 613 82;" xml:space="preserve">
<style type="text/css">
	.st0{fill:#FFE60F;}
</style>
<path class="st0" d="M154.87,82.43H12.01c-6.6,0-12-5.4-12-12v-58.1c0-6.6,5.4-12,12-12h142.86c6.6,0,12,5.4,12,12v58.1
	C166.87,77.03,161.47,82.43,154.87,82.43z"/>
<g>
	<path d="M32.98,16.01v50.01H19.97V16.01H32.98z"/>
	<path d="M78.33,16.01v50.01H66.96l-0.02-33.76l-4.53,33.76h-8.06l-4.77-32.99l-0.02,32.99H38.2V16.01h16.83
		c0.5,3.01,1.01,6.55,1.54,10.63l1.85,12.72l2.99-23.35H78.33z"/>
	<path d="M83.55,16.01h9.73c6.28,0,10.53,0.29,12.74,0.86c2.21,0.58,3.9,1.52,5.05,2.84c1.15,1.32,1.87,2.79,2.16,4.4
		c0.29,1.62,0.43,4.79,0.43,9.53v17.52c0,4.49-0.21,7.49-0.63,9c-0.42,1.51-1.16,2.7-2.21,3.55c-1.05,0.85-2.35,1.45-3.89,1.79
		c-1.54,0.34-3.87,0.51-6.98,0.51h-16.4V16.01z M96.55,24.56v32.9c1.87,0,3.03-0.38,3.46-1.13c0.43-0.75,0.65-2.8,0.65-6.13V30.77
		c0-2.27-0.07-3.72-0.22-4.36c-0.14-0.64-0.47-1.11-0.99-1.41C98.94,24.71,97.98,24.56,96.55,24.56z"/>
	<path d="M130.63,16.01v11.84c1.03-1.2,2.18-2.09,3.44-2.68c1.27-0.59,2.64-0.88,4.12-0.88c1.71,0,3.19,0.27,4.45,0.8
		c1.26,0.54,2.21,1.29,2.87,2.26c0.66,0.97,1.06,1.92,1.19,2.84c0.13,0.93,0.2,2.9,0.2,5.93v18.47c0,3.01-0.2,5.25-0.6,6.72
		c-0.4,1.47-1.34,2.75-2.83,3.83s-3.24,1.62-5.28,1.62c-1.46,0-2.83-0.32-4.09-0.96c-1.27-0.64-2.42-1.6-3.48-2.88l-0.8,3.1h-11.68
		V16.01H130.63z M134.43,36.67c0-2.12-0.13-3.51-0.4-4.15c-0.27-0.65-0.79-0.97-1.58-0.97c-0.76,0-1.26,0.28-1.48,0.85
		c-0.23,0.57-0.34,1.99-0.34,4.28v17.67c0,2.2,0.13,3.61,0.39,4.23c0.26,0.62,0.77,0.93,1.53,0.93c0.78,0,1.29-0.32,1.53-0.96
		c0.24-0.64,0.36-2.17,0.36-4.6V36.67z"/>
</g>
<g>
	<path class="st0" d="M226.75,16.51v50.25h-11.42l-0.02-33.93l-4.55,33.93h-8.1l-4.8-33.15l-0.02,33.15h-11.42V16.51h16.91
		c0.5,3.02,1.02,6.58,1.55,10.68l1.86,12.78l3-23.47H226.75z"/>
	<path class="st0" d="M260,40.03v10.09c0,3.7-0.19,6.42-0.56,8.15c-0.37,1.73-1.17,3.34-2.39,4.84c-1.22,1.5-2.79,2.61-4.7,3.32
		c-1.91,0.71-4.11,1.07-6.6,1.07c-2.77,0-5.12-0.31-7.05-0.92c-1.92-0.61-3.42-1.53-4.49-2.76c-1.07-1.23-1.83-2.72-2.28-4.47
		c-0.46-1.75-0.68-4.37-0.68-7.87V40.93c0-3.83,0.41-6.82,1.24-8.97c0.83-2.15,2.32-3.88,4.47-5.18c2.15-1.3,4.9-1.96,8.26-1.96
		c2.81,0,5.23,0.42,7.25,1.26c2.02,0.84,3.57,1.93,4.67,3.27c1.1,1.35,1.85,2.73,2.25,4.16C259.79,34.94,260,37.12,260,40.03z
		 M247.46,36.93c0-2.11-0.11-3.44-0.34-3.99s-0.71-0.82-1.46-0.82c-0.75,0-1.24,0.27-1.49,0.82c-0.25,0.55-0.37,1.88-0.37,3.99
		v18.59c0,1.95,0.12,3.21,0.37,3.8c0.25,0.59,0.73,0.88,1.46,0.88c0.75,0,1.24-0.27,1.47-0.81c0.24-0.54,0.36-1.7,0.36-3.48V36.93z"
		/>
	<path class="st0" d="M290.07,25.57l-5.87,41.19h-16.39l-6.3-41.19h11.2l3.53,30.08c0.28-2.21,0.75-7.6,1.41-16.17
		c0.36-4.78,0.76-9.42,1.22-13.91H290.07z"/>
	<path class="st0" d="M304.82,16.51v6.55H291.9v-6.55H304.82z M304.82,25.57v41.19H291.9V25.57H304.82z"/>
	<path class="st0" d="M337.72,46.89h-16.23v8.91c0,1.86,0.13,3.06,0.4,3.6c0.27,0.54,0.79,0.81,1.55,0.81
		c0.95,0,1.59-0.36,1.91-1.07c0.32-0.71,0.48-2.1,0.48-4.14v-5.43h11.89v3.04c0,2.55-0.16,4.5-0.48,5.87s-1.07,2.82-2.25,4.38
		c-1.18,1.55-2.67,2.72-4.49,3.49s-4.08,1.16-6.81,1.16c-2.65,0-4.99-0.38-7.02-1.15c-2.03-0.77-3.61-1.82-4.73-3.15
		c-1.13-1.33-1.91-2.8-2.34-4.41c-0.43-1.6-0.65-3.94-0.65-7V39.79c0-3.6,0.49-6.44,1.46-8.52c0.97-2.08,2.57-3.67,4.78-4.78
		c2.21-1.11,4.76-1.66,7.64-1.66c3.52,0,6.42,0.67,8.71,2c2.29,1.33,3.89,3.1,4.81,5.31c0.92,2.2,1.38,5.3,1.38,9.3V46.89z
		 M325.15,40.19v-3.01c0-2.13-0.11-3.51-0.34-4.13s-0.69-0.93-1.4-0.93c-0.87,0-1.41,0.26-1.61,0.79c-0.21,0.53-0.31,1.95-0.31,4.27
		v3.01H325.15z"/>
	<path class="st0" d="M383.38,35.01h-13.07v-4.56c0-2.88-0.12-4.68-0.37-5.4c-0.25-0.72-0.84-1.09-1.77-1.09
		c-0.81,0-1.36,0.31-1.65,0.93c-0.29,0.62-0.43,2.21-0.43,4.78v24.12c0,2.26,0.14,3.74,0.43,4.45c0.29,0.71,0.87,1.07,1.74,1.07
		c0.95,0,1.6-0.4,1.94-1.21s0.51-2.38,0.51-4.72v-5.96h-2.64v-7.64h15.3v26.97h-8.21l-1.21-3.6c-0.89,1.55-2.01,2.72-3.37,3.49
		c-1.36,0.78-2.96,1.16-4.8,1.16c-2.2,0-4.25-0.53-6.17-1.6c-1.92-1.07-3.37-2.38-4.36-3.96c-0.99-1.57-1.62-3.22-1.86-4.95
		c-0.25-1.73-0.37-4.32-0.37-7.78V34.6c0-4.8,0.26-8.29,0.78-10.46c0.52-2.17,2-4.16,4.45-5.98c2.45-1.81,5.62-2.72,9.51-2.72
		c3.83,0,7,0.79,9.53,2.36c2.52,1.57,4.17,3.44,4.94,5.6c0.77,2.16,1.15,5.3,1.15,9.42V35.01z"/>
	<path class="st0" d="M416.47,46.89h-16.23v8.91c0,1.86,0.13,3.06,0.4,3.6c0.27,0.54,0.79,0.81,1.55,0.81
		c0.95,0,1.59-0.36,1.91-1.07c0.32-0.71,0.48-2.1,0.48-4.14v-5.43h11.89v3.04c0,2.55-0.16,4.5-0.48,5.87s-1.07,2.82-2.25,4.38
		c-1.18,1.55-2.67,2.72-4.49,3.49s-4.08,1.16-6.81,1.16c-2.65,0-4.99-0.38-7.02-1.15c-2.03-0.77-3.61-1.82-4.73-3.15
		c-1.13-1.33-1.91-2.8-2.34-4.41c-0.43-1.6-0.65-3.94-0.65-7V39.79c0-3.6,0.49-6.44,1.46-8.52c0.97-2.08,2.57-3.67,4.78-4.78
		c2.21-1.11,4.76-1.66,7.64-1.66c3.52,0,6.42,0.67,8.71,2c2.29,1.33,3.89,3.1,4.81,5.31c0.92,2.2,1.38,5.3,1.38,9.3V46.89z
		 M403.9,40.19v-3.01c0-2.13-0.11-3.51-0.34-4.13s-0.69-0.93-1.4-0.93c-0.87,0-1.41,0.26-1.61,0.79c-0.21,0.53-0.31,1.95-0.31,4.27
		v3.01H403.9z"/>
	<path class="st0" d="M433.32,25.57l-0.22,3.79c0.91-1.51,2.02-2.65,3.34-3.4c1.31-0.76,2.83-1.13,4.55-1.13
		c2.15,0,3.91,0.51,5.28,1.52c1.37,1.01,2.25,2.29,2.64,3.83c0.39,1.54,0.59,4.11,0.59,7.71v28.87h-12.54V38.23
		c0-2.83-0.09-4.56-0.28-5.18c-0.19-0.62-0.7-0.93-1.55-0.93c-0.89,0-1.45,0.36-1.68,1.07c-0.23,0.71-0.34,2.62-0.34,5.73v27.84
		h-12.54V25.57H433.32z"/>
	<path class="st0" d="M482.21,46.89h-16.23v8.91c0,1.86,0.13,3.06,0.4,3.6c0.27,0.54,0.79,0.81,1.55,0.81
		c0.95,0,1.59-0.36,1.91-1.07c0.32-0.71,0.48-2.1,0.48-4.14v-5.43h11.89v3.04c0,2.55-0.16,4.5-0.48,5.87s-1.07,2.82-2.25,4.38
		c-1.18,1.55-2.67,2.72-4.49,3.49s-4.08,1.16-6.81,1.16c-2.65,0-4.99-0.38-7.02-1.15c-2.03-0.77-3.61-1.82-4.73-3.15
		c-1.13-1.33-1.91-2.8-2.34-4.41c-0.43-1.6-0.65-3.94-0.65-7V39.79c0-3.6,0.49-6.44,1.46-8.52c0.97-2.08,2.57-3.67,4.78-4.78
		c2.21-1.11,4.76-1.66,7.64-1.66c3.52,0,6.42,0.67,8.71,2c2.29,1.33,3.89,3.1,4.81,5.31c0.92,2.2,1.38,5.3,1.38,9.3V46.89z
		 M469.64,40.19v-3.01c0-2.13-0.11-3.51-0.34-4.13s-0.69-0.93-1.4-0.93c-0.87,0-1.41,0.26-1.61,0.79c-0.21,0.53-0.31,1.95-0.31,4.27
		v3.01H469.64z"/>
	<path class="st0" d="M498.85,25.57l-0.5,5.42c1.82-3.88,4.46-5.93,7.92-6.16v14.5c-2.3,0-3.98,0.31-5.06,0.93
		c-1.08,0.62-1.74,1.49-1.99,2.59c-0.25,1.11-0.37,3.66-0.37,7.65v16.27h-12.54V25.57H498.85z"/>
	<path class="st0" d="M520.27,41.52H508.5v-2.76c0-3.19,0.37-5.64,1.1-7.37c0.73-1.73,2.21-3.25,4.42-4.58s5.09-1.99,8.63-1.99
		c4.24,0,7.44,0.75,9.59,2.25c2.15,1.5,3.45,3.34,3.88,5.52c0.43,2.18,0.65,6.68,0.65,13.49v20.67h-12.2v-3.67
		c-0.77,1.47-1.75,2.58-2.96,3.31s-2.65,1.1-4.33,1.1c-2.19,0-4.21-0.62-6.04-1.85c-1.83-1.23-2.75-3.93-2.75-8.09v-3.38
		c0-3.08,0.49-5.18,1.46-6.3c0.97-1.12,3.38-2.42,7.23-3.91c4.12-1.61,6.32-2.7,6.61-3.26c0.29-0.56,0.43-1.7,0.43-3.41
		c0-2.15-0.16-3.55-0.48-4.21s-0.85-0.98-1.6-0.98c-0.85,0-1.38,0.27-1.58,0.82s-0.31,1.97-0.31,4.27V41.52z M524.24,47.17
		c-2.01,1.47-3.17,2.7-3.49,3.69s-0.48,2.42-0.48,4.28c0,2.13,0.14,3.51,0.42,4.13c0.28,0.62,0.83,0.93,1.66,0.93
		c0.79,0,1.3-0.24,1.54-0.73c0.24-0.49,0.36-1.76,0.36-3.83V47.17z"/>
	<path class="st0" d="M554.32,20.08v6.49h3.38v6.52h-3.38v22.04c0,2.71,0.14,4.22,0.42,4.53c0.28,0.31,1.44,0.47,3.49,0.47v6.64
		h-5.06c-2.86,0-4.89-0.12-6.12-0.36c-1.22-0.24-2.3-0.79-3.23-1.65c-0.93-0.86-1.51-1.84-1.74-2.95c-0.23-1.11-0.34-3.71-0.34-7.81
		V33.08h-2.7v-6.52h2.7v-6.49H554.32z"/>
	<path class="st0" d="M588.83,40.03v10.09c0,3.7-0.19,6.42-0.56,8.15c-0.37,1.73-1.17,3.34-2.39,4.84c-1.22,1.5-2.79,2.61-4.7,3.32
		c-1.91,0.71-4.11,1.07-6.6,1.07c-2.77,0-5.12-0.31-7.05-0.92c-1.92-0.61-3.42-1.53-4.49-2.76c-1.07-1.23-1.83-2.72-2.28-4.47
		c-0.46-1.75-0.68-4.37-0.68-7.87V40.93c0-3.83,0.41-6.82,1.24-8.97c0.83-2.15,2.32-3.88,4.47-5.18c2.15-1.3,4.9-1.96,8.26-1.96
		c2.81,0,5.23,0.42,7.25,1.26c2.02,0.84,3.57,1.93,4.67,3.27c1.1,1.35,1.85,2.73,2.25,4.16C588.63,34.94,588.83,37.12,588.83,40.03z
		 M576.29,36.93c0-2.11-0.11-3.44-0.34-3.99s-0.71-0.82-1.46-0.82c-0.75,0-1.24,0.27-1.49,0.82c-0.25,0.55-0.37,1.88-0.37,3.99
		v18.59c0,1.95,0.12,3.21,0.37,3.8c0.25,0.59,0.73,0.88,1.46,0.88c0.75,0,1.24-0.27,1.47-0.81c0.24-0.54,0.36-1.7,0.36-3.48V36.93z"
		/>
	<path class="st0" d="M605.5,25.57l-0.5,5.42c1.82-3.88,4.46-5.93,7.92-6.16v14.5c-2.3,0-3.98,0.31-5.06,0.93
		c-1.08,0.62-1.74,1.49-1.99,2.59c-0.25,1.11-0.37,3.66-0.37,7.65v16.27h-12.54V25.57H605.5z"/>
</g>
</svg>
